HIERARCHY
ROOT RootJoint
{
    OFFSET   0.000000   0.000000   0.000000
    CHANNELS 6 Xposition Yposition Zposition Xrotation Yrotation Zrotation
    JOINT pelvis_lowerback
    {
        OFFSET   0.000000   0.093605   0.000000
        CHANNELS 3 Xrotation Yrotation Zrotation
        JOINT lowerback_torso
        {
            OFFSET   0.000000   0.100000   0.000000
            CHANNELS 3 Xrotation Yrotation Zrotation
            JOINT torso_head
            {
                OFFSET   0.000000   0.282350   0.000000
                CHANNELS 3 Xrotation Yrotation Zrotation
                End Site
                {
                    OFFSET   0.000000   0.192650   0.000000
                }
            }
            JOINT rTorso_Clavicle
            {
                OFFSET  -0.001000   0.157500   0.000000
                CHANNELS 3 Xrotation Yrotation Zrotation
                JOINT rShoulder
                {
                    OFFSET  -0.117647   0.000000   0.000000
                    CHANNELS 3 Xrotation Yrotation Zrotation
                    JOINT rElbow
                    {
                        OFFSET  -0.245000   0.000000   0.000000
                        CHANNELS 3 Xrotation Yrotation Zrotation
                        JOINT rWrist
                        {
                            OFFSET  -0.240000   0.000000   0.000000
                            CHANNELS 3 Xrotation Yrotation Zrotation
                            End Site
                            {
                                OFFSET  -0.116353  -0.002500   0.000000
                            }
                        }
                    }
                }
            }
            JOINT lTorso_Clavicle
            {
                OFFSET   0.001000   0.157500   0.000000
                CHANNELS 3 Xrotation Yrotation Zrotation
                JOINT lShoulder
                {
                    OFFSET   0.117647   0.000000   0.000000
                    CHANNELS 3 Xrotation Yrotation Zrotation
                    JOINT lElbow
                    {
                        OFFSET   0.245000   0.000000   0.000000
                        CHANNELS 3 Xrotation Yrotation Zrotation
                        JOINT lWrist
                        {
                            OFFSET   0.240000   0.000000   0.000000
                            CHANNELS 3 Xrotation Yrotation Zrotation
                            End Site
                            {
                                OFFSET   0.116353  -0.002500   0.000000
                            }
                        }
                    }
                }
            }
        }
    }
    JOINT rHip
    {
        OFFSET  -0.100000  -0.051395   0.000000
        CHANNELS 3 Xrotation Yrotation Zrotation
        JOINT rKnee
        {
            OFFSET   0.000000  -0.410000   0.000000
            CHANNELS 3 Xrotation Yrotation Zrotation
            JOINT rAnkle
            {
                OFFSET   0.000000  -0.390000   0.000000
                CHANNELS 3 Xrotation Yrotation Zrotation
                JOINT rToeJoint
                {
                    OFFSET   0.000000  -0.050000   0.130000
                    CHANNELS 3 Xrotation Yrotation Zrotation
                    End Site
                    {
                        OFFSET  -0.010000   0.002000   0.060000
                    }
                }
            }
        }
    }
    JOINT lHip
    {
        OFFSET   0.100000  -0.051395   0.000000
        CHANNELS 3 Xrotation Yrotation Zrotation
        JOINT lKnee
        {
            OFFSET   0.000000  -0.410000   0.000000
            CHANNELS 3 Xrotation Yrotation Zrotation
            JOINT lAnkle
            {
                OFFSET   0.000000  -0.390000   0.000000
                CHANNELS 3 Xrotation Yrotation Zrotation
                JOINT lToeJoint
                {
                    OFFSET   0.000000  -0.050000   0.130000
                    CHANNELS 3 Xrotation Yrotation Zrotation
                    End Site
                    {
                        OFFSET   0.010000   0.002000   0.060000
                    }
                }
            }
        }
    }
}
MOTION
Frames: 12
Frame Time:   0.008333
 -2.382457   0.905610   4.020267  -5.836740  -9.745146   1.521113   8.974493  -1.674656  -2.214564   0.775637   0.242671  -2.842206   0.761398  -1.606287  -0.506099   0.441958 -12.381025   4.336272 -16.734812 -20.114755  26.481011  -0.002459  26.667585   0.001001  -0.825657   1.587981 -13.215307  -0.827052  13.099731  -6.253676 -26.686235  14.824479 -28.375922  -0.169327 -70.437733  -0.163776  -2.204241  -4.708014  22.403808  -5.203275  -5.531014  -7.413011  25.176319   0.000524  -0.003633 -14.051100  -6.129016   0.980456  -0.329993  -0.000101   0.000006   3.051403   0.289805   3.961648  18.551488  -0.000957   0.009215 -11.709930   3.835670  -0.239583  -7.287926  -0.001079   0.006204
 -2.381329   0.905802   4.020812  -5.828162 -10.162512   1.892925   8.866068  -1.697993  -2.214399   0.746211   0.229943  -3.066605   0.718234  -1.737192  -0.574824   0.150115 -12.314448   3.799761 -17.582665 -19.850762  25.376933  -0.004175  26.830893   0.002554  -0.879124   1.385473 -13.187933  -0.550618  13.063441  -6.517675 -25.213335  14.688323 -29.091802  -0.178994 -69.248441  -0.173043  -2.088609  -4.800330  22.209691  -5.453138  -5.408175  -7.950952  25.471628   0.000443  -0.003938 -14.197356  -6.008677   0.886728  -0.189262   0.000171  -0.000315   3.322843   0.394859   3.429874  18.155779  -0.000942   0.008523 -11.398796   4.060338  -0.274561  -7.299446  -0.000879   0.004970
 -2.380331   0.906042   4.021343  -5.819938 -10.583113   2.255842   8.754137  -1.708535  -2.204094   0.712520   0.226926  -3.310173   0.670436  -1.863107  -0.625625  -0.136748 -12.215063   3.215526 -18.397569 -19.545521  24.295438  -0.005685  27.001272   0.003808  -0.916688   1.250801 -13.197754  -0.265664  13.009116  -6.822413 -23.800069  14.556788 -29.803495  -0.181698 -68.104999  -0.175080  -2.042954  -4.715856  21.869548  -5.681443  -5.295413  -8.471474  25.726297   0.000348  -0.004061 -14.334620  -5.903650   0.794252   0.024098   0.000497  -0.000791   3.577906   0.496011   2.915749  17.786055  -0.000885   0.007890 -11.042238   4.265331  -0.291468  -7.449499  -0.000854   0.004110
 -2.379550   0.906282   4.021841  -5.812890 -10.987497   2.598848   8.644499  -1.710806  -2.198658   0.676815   0.232979  -3.565232   0.622695  -1.981188  -0.665688  -0.410781 -12.100265   2.619434 -19.167444 -19.222430  23.259396  -0.006883  27.171269   0.004731  -0.939707   1.181463 -13.251004   0.007208  12.948406  -7.138193 -22.469216  14.422211 -30.487486  -0.178032 -67.031717  -0.170766  -2.022791  -4.575331  21.473576  -5.891341  -5.189553  -8.953636  25.958911   0.000247  -0.004046 -14.462458  -5.805700   0.707931   0.237203   0.000715  -0.001162   3.817384   0.587752   2.439106  17.441595  -0.000789   0.007264 -10.675119   4.454563  -0.302651  -7.671014  -0.000855   0.003498
 -2.379014   0.906504   4.022297  -5.807723 -11.362328   2.920369   8.538898  -1.708392  -2.205822   0.641078   0.244090  -3.827377   0.576561  -2.091590  -0.700395  -0.668643 -11.980322   2.031790 -19.888208 -18.894669  22.277805  -0.007744  27.336594   0.005344  -0.952931   1.155126 -13.334824   0.263769  12.886052  -7.448952 -21.223489  14.283520 -31.134196  -0.170048 -66.028575  -0.162279  -2.009236  -4.424056  21.064660  -6.083773  -5.091527  -9.392504  26.178694   0.000147  -0.003930 -14.582028  -5.712881   0.628965   0.416174   0.000797  -0.001341   4.042225   0.670540   2.004330  17.119863  -0.000672   0.006621 -10.312094   4.631196  -0.309807  -7.928660  -0.000826   0.003020
 -2.378720   0.906701   4.022711  -5.804594 -11.699360   3.221355   8.437726  -1.703826  -2.228143   0.606306   0.257270  -4.093532   0.532602  -2.194725  -0.732496  -0.909096 -11.861540   1.463355 -20.559396 -18.570456  21.353580  -0.008287  27.494810   0.005691  -0.960081   1.154366 -13.438908   0.503569  12.824914  -7.747685 -20.060433  14.142025 -31.740505  -0.159429 -65.092147  -0.151326  -1.996407  -4.275991  20.660167  -6.259112  -5.001612  -9.788136  26.390000   0.000052  -0.003738 -14.694502  -5.624199   0.557486   0.545689   0.000773  -0.001335   4.252864   0.745589   1.610919  16.818526  -0.000552   0.005961  -9.959498   4.797352  -0.313638  -8.202334  -0.000756   0.002602
 -2.378654   0.906874   4.023080  -5.803388 -11.993881   3.503525   8.340962  -1.698697  -2.265494   0.572946   0.270644  -4.361226   0.491012  -2.291025  -0.763296  -1.132102 -11.747705   0.919569 -21.182467 -18.254904  20.486459  -0.008549  27.644673   0.005821  -0.963615   1.167767 -13.556561   0.727348  12.766709  -8.031769 -18.975774  13.999568 -32.306470  -0.147403 -64.218294  -0.139117  -1.982750  -4.134935  20.267489  -6.417763  -4.919497 -10.142586  26.594942  -0.000033  -0.003487 -14.800871  -5.538949   0.493163   0.619749   0.000680  -0.001194   4.449505   0.814006   1.256495  16.535612  -0.000438   0.005292  -9.620013   4.954359  -0.314595  -8.479766  -0.000649   0.002204
 -2.378736   0.907070   4.023515  -5.785791 -12.227243   3.697953   8.200678  -1.667038  -2.226895   0.532323   0.248972  -4.573023   0.454149  -2.429564  -0.775731  -1.389976 -11.623145   0.357375 -21.786984 -17.849204  19.504261  -0.008296  27.753282   0.005579  -0.994179   1.081671 -13.551244   0.916064  12.692017  -8.238064 -17.792949  13.783793 -33.008446  -0.146105 -63.010779  -0.136727  -1.914001  -4.173920  20.001986  -6.511804  -4.856442 -10.367868  26.686850  -0.000065  -0.002954 -14.849511  -5.464721   0.348446   0.546491   0.000446  -0.000867   4.643729   0.841186   1.015074  16.225991  -0.000307   0.004759  -9.342708   5.087637  -0.325466  -8.665436  -0.000548   0.001861
 -2.378947   0.907267   4.023930  -5.760856 -12.414906   3.876665   8.055265  -1.636379  -2.190399   0.480771   0.225406  -4.780401   0.413385  -2.560933  -0.773324  -1.634199 -11.491209  -0.222511 -22.359172 -17.436269  18.553746  -0.008098  27.862784   0.005362  -1.018998   1.018407 -13.586205   1.099130  12.607275  -8.452086 -16.678161  13.571074 -33.678559  -0.141304 -61.860578  -0.131024  -1.893270  -4.081862  19.678862  -6.591113  -4.797826 -10.557754  26.760533  -0.000081  -0.002463 -14.897604  -5.392252   0.212705   0.477028   0.000275  -0.000640   4.821446   0.863848   0.804679  15.919809  -0.000205   0.004216  -9.073111   5.213859  -0.332817  -8.843536  -0.000443   0.001531
 -2.379297   0.907454   4.024309  -5.734990 -12.557529   4.047061   7.913023  -1.607068  -2.167776   0.426080   0.203926  -4.992827   0.372409  -2.683800  -0.766758  -1.862661 -11.359461  -0.796339 -22.893555 -17.029418  17.650583  -0.007888  27.970786   0.005135  -1.035986   0.987540 -13.656429   1.269984  12.522349  -8.662142 -15.637732  13.359933 -34.308032  -0.133688 -60.784897  -0.122760  -1.884733  -3.960793  19.340535  -6.658402  -4.743559 -10.722123  26.830207  -0.000092  -0.002035 -14.945107  -5.321597   0.086916   0.377093   0.000121  -0.000473   4.983278   0.882213   0.617541  15.626405  -0.000126   0.003656  -8.809170   5.330760  -0.336515  -9.020234  -0.000336   0.001220
 -2.379783   0.907628   4.024646  -5.709996 -12.672089   4.207752   7.777070  -1.572266  -2.160742   0.371982   0.189859  -5.210243   0.332686  -2.798309  -0.760048  -2.075812 -11.229354  -1.352516 -23.390174 -16.633453  16.799558  -0.007635  28.075705   0.004888  -1.046819   0.981328 -13.748301   1.429280  12.442202  -8.863703 -14.668487  13.152912 -34.895212  -0.124440 -59.781027  -0.113116  -1.877515  -3.840396  19.008138  -6.718170  -4.697646 -10.864651  26.900064  -0.000102  -0.001678 -14.998945  -5.259984  -0.029778   0.294089   0.000028  -0.000357   5.132933   0.889480   0.453924  15.346922  -0.000046   0.003148  -8.552705   5.431442  -0.335206  -9.198060  -0.000227   0.000972
 -2.380390   0.907789   4.024939  -5.686483 -12.766425   4.357892   7.648721  -1.530890  -2.168618   0.320365   0.184658  -5.430434   0.294746  -2.904975  -0.754456  -2.274375 -11.101753  -1.885218 -23.850460 -16.251035  16.001624  -0.007334  28.176731   0.004621  -1.053054   0.992894 -13.852173   1.578452  12.369171  -9.055122 -13.765772  12.952237 -35.441048  -0.114443 -58.844254  -0.102945  -1.869694  -3.725945  18.689526  -6.772151  -4.661400 -10.987151  26.969831  -0.000112  -0.001382 -15.056956  -5.206939  -0.137279   0.227791  -0.000023  -0.000273   5.271616   0.889115   0.312754  15.082710   0.000032   0.002695  -8.304661   5.520253  -0.330762  -9.375977  -0.000119   0.000774
